# xmcd
#
# Track frame offsets: 
#        150
#        14372
#        30500
#        47687
#        63250
#        80960
#        96287
#        114322
#        126817
#        138895
#        157332
#        174592
#
# Disc length: 2484 seconds
#
# Revision: 1
# Processed by: cddbd v1.5.2PL0 Copyright (c) Steve Scherf et al.
# Submitted via: ExactAudioCopy v0.99pb5
#
DISCID=9e09b20c
DTITLE=Geoff Muldaur - Blues Boy
DYEAR=1900
DGENRE=Blues
TTITLE0=Nothing in the World
TTITLE1=Bad Feet
TTITLE2=Meanest Woman
TTITLE3=Walking to New Orleans
TTITLE4=Tears Came Rolling Down
TTITLE5=Sloopy Drunk Blues
TTITLE6=Forty Four
TTITLE7=That´s All Right
TTITLE8=Feelin´ Good
TTITLE9=Old Train 29
TTITLE10=Chicken Stew Part 1
TTITLE11=Dance of the Coloured Elves
EXTD=
EXTT0=
EXTT1=
EXTT2=
EXTT3=
EXTT4=
EXTT5=
EXTT6=
EXTT7=
EXTT8=
EXTT9=
EXTT10=
EXTT11=
PLAYORDER=
